<svg width="250" height="200" viewBox="0 0 250 200" fill="none" xmlns="http://www.w3.org/2000/svg">
<rect x="0.5" y="0.5" width="249" height="199" fill="black"/>
<rect x="0.5" y="0.5" width="249" height="199" stroke="#AFA18F"/>
<path d="M94.375 69.375V130.625H155.625V69.375H94.375ZM127.188 116.953C127.188 122.915 123.666 125.822 118.567 125.822C113.963 125.822 111.29 123.438 109.934 120.56L114.62 117.723C115.524 119.327 116.21 120.683 118.183 120.683C119.824 120.683 121.172 119.943 121.172 117.065V97.8125H127.188V116.953ZM140.771 125.685C135.426 125.685 131.973 123.274 130.287 119.943L134.98 117.227C136.211 119.242 137.817 120.584 140.654 120.584C143.039 120.584 144.424 119.529 144.424 117.884C144.424 115.911 142.998 115.213 140.366 114.056L138.928 113.438C134.774 111.672 132.021 109.451 132.021 104.763C132.021 100.447 135.309 97.2943 140.448 97.2943C144.108 97.2943 146.737 98.4318 148.63 101.762L144.141 104.648C143.154 102.881 142.09 102.188 140.441 102.188C138.755 102.188 137.686 103.257 137.686 104.648C137.686 106.375 138.755 107.074 141.222 108.143L142.66 108.76C147.553 110.857 150.308 112.998 150.308 117.805C150.309 122.987 146.239 125.685 140.771 125.685Z" fill="#AFA18F"/>
</svg>
