<svg width="250" height="200" viewBox="0 0 250 200" fill="none" xmlns="http://www.w3.org/2000/svg">
<rect x="0.5" y="0.5" width="249" height="199" fill="black"/>
<rect x="0.5" y="0.5" width="249" height="199" stroke="#AFA18F"/>
<path d="M148.756 82.7831L127.506 70.0381C126.743 69.603 125.879 69.3741 125.001 69.3741C124.122 69.3741 123.259 69.603 122.495 70.0381L101.244 82.7817C100.478 83.251 99.8461 83.9099 99.4093 84.6947C98.9724 85.4796 98.7454 86.3638 98.7501 87.262V112.715C98.7455 113.614 98.9725 114.498 99.4093 115.284C99.8461 116.069 100.478 116.729 101.244 117.199L106.816 120.527L106.848 120.545C109.662 121.984 110.739 121.984 111.987 121.984C116.381 121.984 119.112 119.141 119.112 114.562V89.8829C119.114 89.5748 118.994 89.2782 118.779 89.0583C118.563 88.8384 118.269 88.7131 117.96 88.7098H114.901C114.593 88.7131 114.298 88.8384 114.083 89.0583C113.867 89.2782 113.747 89.5748 113.749 89.8829V114.562C113.761 114.915 113.68 115.265 113.516 115.579C113.352 115.892 113.11 116.157 112.813 116.349C112.006 116.841 110.835 116.737 109.513 116.055L104.172 112.841C104.152 112.827 104.135 112.808 104.124 112.786C104.112 112.764 104.106 112.74 104.107 112.715V87.6215C104.108 87.5927 104.115 87.5645 104.129 87.5393C104.143 87.514 104.163 87.4926 104.187 87.4766L124.947 74.7618C124.962 74.7541 124.979 74.7501 124.997 74.7501C125.014 74.7501 125.031 74.7541 125.047 74.7618L145.818 87.4766C145.842 87.4939 145.861 87.5165 145.874 87.5427C145.887 87.5688 145.894 87.5978 145.893 87.627V112.715C145.894 112.741 145.889 112.767 145.878 112.79C145.867 112.814 145.852 112.835 145.832 112.852L125.042 125.245C125.007 125.257 124.969 125.257 124.933 125.245L119.624 122.092C119.467 121.989 119.285 121.93 119.097 121.92C118.909 121.91 118.721 121.95 118.554 122.036L118.507 122.064C117.042 122.932 116.648 123.157 115.289 123.652C115.067 123.733 114.547 123.926 114.501 124.441C114.456 124.957 114.951 125.323 115.391 125.579L122.487 129.936C123.243 130.389 124.108 130.628 124.989 130.629H125.068C125.928 130.616 126.768 130.377 127.506 129.936L148.756 117.203C149.522 116.732 150.153 116.071 150.59 115.285C151.027 114.499 151.254 113.614 151.25 112.715V87.262C151.254 86.364 151.027 85.4801 150.59 84.6956C150.154 83.9111 149.522 83.2524 148.756 82.7831Z" fill="#AFA18F"/>
<path d="M132.093 108.483C126.995 108.483 125.908 107.059 125.585 104.759C125.549 104.485 125.415 104.234 125.209 104.05C125.003 103.866 124.737 103.763 124.461 103.758H121.754C121.449 103.765 121.159 103.892 120.947 104.112C120.736 104.332 120.62 104.626 120.625 104.931C120.625 106.925 121.325 113.431 132.098 113.431C135.432 113.431 138.204 112.652 140.114 111.177C142.024 109.702 143.047 107.555 143.047 104.997C143.047 99.8632 139.697 98.4578 133.101 97.539C126.394 96.6066 126.394 96.1322 126.394 95.0931C126.394 94.3453 126.394 92.5939 131.242 92.5939C134.692 92.5939 136.539 93.03 137.13 95.3283C137.182 95.5831 137.32 95.8124 137.52 95.9782C137.72 96.144 137.971 96.2365 138.232 96.2402H140.948C141.108 96.2386 141.266 96.2029 141.411 96.1355C141.557 96.0681 141.686 95.9705 141.79 95.8492C141.999 95.6053 142.103 95.2889 142.08 94.9687C141.729 90.1083 138.176 87.6433 131.247 87.6433C124.949 87.6433 121.191 90.4802 121.191 95.2312C121.191 100.44 125.086 101.913 130.938 102.522C137.774 103.229 137.774 104.26 137.774 105.171C137.778 106.59 137.188 108.483 132.093 108.483Z" fill="#AFA18F"/>
</svg>
