<svg width="250" height="200" viewBox="0 0 250 200" fill="none" xmlns="http://www.w3.org/2000/svg">
<rect x="0.5" y="0.5" width="249" height="199" fill="black"/>
<rect x="0.5" y="0.5" width="249" height="199" stroke="#AFA18F"/>
<path d="M146.145 89.7078C145.446 89.469 144.742 89.2466 144.033 89.0407C144.15 88.5621 144.259 88.0809 144.358 87.5969C145.958 79.8176 144.912 73.5504 141.342 71.4873C137.924 69.5077 132.319 71.5707 126.664 76.5035C126.108 76.9903 125.563 77.4916 125.03 78.0075C124.675 77.6647 124.31 77.3293 123.936 77.0012C118.01 71.7266 112.069 69.5049 108.504 71.5748C105.086 73.5586 104.07 79.4498 105.509 86.8231C105.653 87.5522 105.815 88.2782 105.995 89.001C105.178 89.2326 104.367 89.488 103.565 89.7666C96.6254 92.1934 92.1875 95.9983 92.1875 99.944C92.1875 104.021 96.9508 108.109 104.187 110.588C104.774 110.787 105.367 110.973 105.965 111.144C105.771 111.918 105.599 112.7 105.449 113.491C104.082 120.738 105.148 126.489 108.56 128.461C112.083 130.497 117.993 128.405 123.754 123.36C124.21 122.961 124.666 122.539 125.122 122.095C125.698 122.652 126.29 123.193 126.899 123.717C132.477 128.526 137.986 130.469 141.391 128.492C144.912 126.45 146.056 120.27 144.57 112.752C144.456 112.178 144.325 111.592 144.176 110.994C144.592 110.871 144.999 110.743 145.397 110.612C152.917 108.114 157.815 104.076 157.815 99.9481C157.812 95.9832 153.232 92.1537 146.145 89.7078ZM128.508 78.6227C133.352 74.3967 137.88 72.7287 139.945 73.9209C142.142 75.1911 142.996 80.3125 141.615 87.0295C141.524 87.467 141.426 87.9032 141.32 88.3379C138.429 87.6804 135.498 87.2164 132.546 86.9489C130.855 84.5137 129.002 82.1956 126.999 80.0104C127.489 79.5346 127.991 79.072 128.505 78.6227H128.508ZM111.565 103.315C112.158 104.464 112.778 105.598 113.425 106.718C114.084 107.861 114.771 108.987 115.486 110.097C113.454 109.876 111.435 109.55 109.437 109.122C110.017 107.246 110.731 105.298 111.565 103.315ZM111.565 96.7078C110.744 94.7678 110.05 92.8592 109.48 91.0162C111.353 90.5965 113.349 90.2534 115.43 89.9936C114.732 91.0819 114.062 92.1861 113.417 93.3063C112.773 94.4265 112.154 95.5603 111.561 96.7078H111.565ZM113.055 100.012C113.919 98.2104 114.85 96.4431 115.847 94.7104C116.843 92.9786 117.903 91.2865 119.028 89.634C120.98 89.4864 122.982 89.4084 125.004 89.4084C127.026 89.4084 129.04 89.4864 130.991 89.6354C132.104 91.2842 133.158 92.9704 134.153 94.694C135.149 96.4175 136.092 98.1767 136.982 99.9713C136.103 101.78 135.163 103.554 134.16 105.295C133.166 107.027 132.118 108.724 131.016 110.387C129.067 110.523 127.051 110.598 125 110.598C122.949 110.598 120.971 110.534 119.058 110.41C117.925 108.752 116.856 107.052 115.851 105.312C114.845 103.571 113.912 101.804 113.051 100.012H113.055ZM136.587 106.699C137.248 105.553 137.882 104.391 138.49 103.214C139.323 105.104 140.059 107.035 140.694 109C138.672 109.455 136.628 109.805 134.57 110.046C135.265 108.944 135.937 107.829 136.587 106.699ZM138.463 96.7092C137.857 95.5562 137.228 94.4169 136.575 93.2912C135.937 92.1811 135.272 91.0846 134.58 90.0018C136.673 90.267 138.681 90.6198 140.564 91.0504C139.959 92.9707 139.257 94.8593 138.463 96.7092ZM125.031 82.0188C126.397 83.5105 127.686 85.0702 128.894 86.6918C126.31 86.5688 123.724 86.5688 121.136 86.6918C122.412 85.0047 123.718 83.4393 125.031 82.0188ZM109.914 74.0043C112.11 72.7301 116.965 74.5512 122.082 79.0998C122.409 79.391 122.739 79.6959 123.067 80.0118C121.053 82.1967 119.187 84.5128 117.48 86.9448C114.535 87.2102 111.609 87.6669 108.722 88.3119C108.555 87.6411 108.405 86.9657 108.271 86.2858C107.034 79.9653 107.853 75.2006 109.914 74.0043ZM106.714 108.437C106.167 108.281 105.627 108.112 105.094 107.93C101.895 106.836 99.2518 105.409 97.4375 103.854C95.8133 102.461 94.9902 101.071 94.9902 99.944C94.9902 97.55 98.5531 94.4957 104.495 92.4244C105.241 92.1647 105.994 91.9272 106.754 91.7121C107.636 94.5481 108.705 97.3227 109.953 100.018C108.69 102.75 107.608 105.563 106.714 108.437ZM121.907 121.243C119.36 123.475 116.809 125.056 114.56 125.854C112.539 126.569 110.93 126.589 109.958 126.027C107.888 124.831 107.027 120.211 108.201 114.015C108.341 113.286 108.5 112.557 108.68 111.828C111.595 112.456 114.55 112.885 117.524 113.111C119.248 115.556 121.129 117.885 123.157 120.084C122.75 120.485 122.333 120.87 121.907 121.243ZM125.109 118.069C123.78 116.632 122.454 115.042 121.161 113.333C122.418 113.382 123.698 113.407 125 113.407C126.337 113.407 127.661 113.378 128.965 113.319C127.761 114.967 126.474 116.552 125.109 118.069ZM142.134 121.978C141.743 124.089 140.956 125.497 139.984 126.06C137.916 127.26 133.493 125.7 128.724 121.587C128.177 121.116 127.63 120.612 127.074 120.083C129.062 117.875 130.9 115.537 132.574 113.083C135.565 112.829 138.534 112.37 141.461 111.709C141.595 112.25 141.713 112.781 141.816 113.3C142.474 116.622 142.568 119.627 142.134 121.978ZM144.513 107.945C144.154 108.064 143.785 108.179 143.411 108.291C142.493 105.441 141.382 102.658 140.087 99.959C141.334 97.2963 142.401 94.553 143.281 91.7477C143.952 91.9432 144.604 92.1483 145.232 92.3657C151.305 94.4602 155.01 97.561 155.01 99.944C155.01 102.487 151.008 105.787 144.513 107.945Z" fill="#AFA18F"/>
<path d="M125 105.817C126.163 105.821 127.302 105.48 128.271 104.836C129.241 104.192 129.997 103.275 130.445 102.202C130.893 101.128 131.012 99.945 130.787 98.8033C130.563 97.6617 130.004 96.6123 129.183 95.7882C128.361 94.9642 127.314 94.4023 126.173 94.1739C125.032 93.9455 123.849 94.0608 122.774 94.5052C121.698 94.9496 120.779 95.7031 120.132 96.6703C119.485 97.6375 119.14 98.7749 119.14 99.9384C119.139 100.709 119.289 101.473 119.583 102.186C119.876 102.898 120.307 103.546 120.852 104.092C121.396 104.638 122.042 105.072 122.754 105.368C123.466 105.664 124.229 105.816 125 105.817Z" fill="#AFA18F"/>
</svg>
