<svg width="250" height="200" viewBox="0 0 250 200" fill="none" xmlns="http://www.w3.org/2000/svg">
<rect x="0.5" y="0.5" width="249" height="199" fill="black"/>
<rect x="0.5" y="0.5" width="249" height="199" stroke="#AFA18F"/>
<g clip-path="url(#clip0_433_2201)">
<path d="M125 65.0931C110.333 65.0931 101.167 72.8504 97.5 88.3644C103 80.6072 109.417 77.6983 116.75 79.6377C120.934 80.744 123.924 83.9551 127.235 87.509C132.627 93.2991 138.868 100 152.5 100C167.167 100 176.333 92.2428 180 76.7288C174.5 84.486 168.083 87.3949 160.75 85.4555C156.566 84.3492 153.576 81.138 150.265 77.5842C144.873 71.7941 138.632 65.0931 125 65.0931ZM97.5 100C82.8335 100 73.6665 107.757 70 123.271C75.5 115.514 81.9165 112.605 89.25 114.545C93.4339 115.651 96.4245 118.862 99.7348 122.416C105.127 128.206 111.368 134.907 125 134.907C139.667 134.907 148.833 127.15 152.5 111.636C147 119.393 140.583 122.302 133.25 120.362C129.066 119.256 126.076 116.045 122.765 112.491C117.373 106.701 111.132 100 97.5 100Z" fill="url(#paint0_linear_433_2201)"/>
</g>
<defs>
<linearGradient id="paint0_linear_433_2201" x1="-712.285" y1="3496.58" x2="-348.172" y2="7359.18" gradientUnits="userSpaceOnUse">
<stop offset="1" stop-color="#AFA18F"/>
</linearGradient>
<clipPath id="clip0_433_2201">
<rect width="110" height="70" fill="white" transform="translate(70 65)"/>
</clipPath>
</defs>
</svg>
